<?xml version="1.0" encoding="utf-8"?>
<!DOCTYPE svg PUBLIC "-//W3C//DTD SVG 1.1//EN" "http://www.w3.org/Graphics/SVG/1.1/DTD/svg11.dtd">
<svg version="1.1" baseProfile="full"
 xmlns="http://www.w3.org/2000/svg"
 xmlns:xlink="http://www.w3.org/1999/xlink"
 xmlns:ev="http://www.w3.org/2001/xml-events" 
  height="16px" 
  width="15px" 
>
<path fill="rgb( 255, 83, 112 )"
 d="M13.065,16 C13.065,16 1.935,16 1.935,16 C0.816,16 0,15.198 0,14.061 C0,14.061 0,1.93899999999999 0,1.93899999999999 C0,0.80200000000001 0.816,0 1.935,0 C1.935,0 2.387,0 2.387,0 C2.63300000000001,0 2.87100000000001,0.239 2.87100000000001,0.485 C2.87100000000001,0.73099999999999 2.63300000000001,0.96899999999999 2.387,0.96899999999999 C2.387,0.96899999999999 1.935,0.96899999999999 1.935,0.96899999999999 C1.30699999999999,0.96899999999999 0.96799999999999,1.294 0.96799999999999,1.93899999999999 C0.96799999999999,1.93899999999999 0.96799999999999,14.061 0.96799999999999,14.061 C0.96799999999999,14.704 1.30799999999999,15.03 1.935,15.03 C1.935,15.03 13.065,15.03 13.065,15.03 C13.693,15.03 14.032,14.706 14.032,14.061 C14.032,14.061 14.032,1.93899999999999 14.032,1.93899999999999 C14.032,1.29600000000001 13.691,0.96899999999999 13.065,0.96899999999999 C13.065,0.96899999999999 12.613,0.96899999999999 12.613,0.96899999999999 C12.367,0.96899999999999 12.129,0.73099999999999 12.129,0.485 C12.129,0.239 12.367,0 12.613,0 C12.613,0 13.065,0 13.065,0 C14.184,0 15,0.80200000000001 15,1.93899999999999 C15,1.93899999999999 15,14.061 15,14.061 C15,15.198 14.184,16 13.065,16 ZM3,10 C3,10 12,10 12,10 C12,10 12,11 12,11 C12,11 3,11 3,11 C3,11 3,10 3,10 ZM3,7 C3,7 12,7 12,7 C12,7 12,8 12,8 C12,8 3,8 3,8 C3,8 3,7 3,7 ZM3,4 C3,4 12,4 12,4 C12,4 12,5 12,5 C12,5 3,5 3,5 C3,5 3,4 3,4 ZM9.67699999999999,0.96899999999999 C9.67699999999999,0.96899999999999 5.32300000000001,0.96899999999999 5.32300000000001,0.96899999999999 C4.92599999999999,0.96899999999999 4.84200000000001,0.88200000000001 4.839,0.485 C4.83500000000001,0.08499999999999 4.922,0.003 5.32300000000001,0 C5.32300000000001,0 9.67699999999999,0 9.67699999999999,0 C10.074,0 10.158,0.087 10.161,0.485 C10.165,0.884 10.078,0.96599999999999 9.67699999999999,0.96899999999999 Z "/>
</svg>
